<?xml version="1.0" standalone="no"?>
<svg xmlns:xlink="http://www.w3.org/1999/xlink" id="wave" style="transform:rotate(0deg); transition: 0.3s" viewBox="0 0 2440 210" version="1.1" xmlns="http://www.w3.org/2000/svg"><defs><linearGradient id="sw-gradient-0" x1="0" x2="0" y1="1" y2="0"><stop stop-color="rgba(255, 255, 255, 1)" offset="0%"/><stop stop-color="rgba(230, 230, 230, 1)" offset="100%"/></linearGradient></defs><path style="transform:translate(0, 0px); opacity:1" fill="url(#sw-gradient-0)" d="M0,63L18.5,80.5C36.9,98,74,133,111,122.5C147.7,112,185,56,222,35C258.5,14,295,28,332,49C369.2,70,406,98,443,112C480,126,517,126,554,108.5C590.8,91,628,56,665,45.5C701.5,35,738,49,775,52.5C812.3,56,849,49,886,59.5C923.1,70,960,98,997,101.5C1033.8,105,1071,84,1108,66.5C1144.6,49,1182,35,1218,52.5C1255.4,70,1292,119,1329,143.5C1366.2,168,1403,168,1440,164.5C1476.9,161,1514,154,1551,154C1587.7,154,1625,161,1662,161C1698.5,161,1735,154,1772,126C1809.2,98,1846,49,1883,56C1920,63,1957,126,1994,136.5C2030.8,147,2068,105,2105,73.5C2141.5,42,2178,21,2215,17.5C2252.3,14,2289,28,2326,38.5C2363.1,49,2400,56,2437,59.5C2473.8,63,2511,63,2548,77C2584.6,91,2622,119,2640,133L2658.5,147L2658.5,210L2640,210C2621.5,210,2585,210,2548,210C2510.8,210,2474,210,2437,210C2400,210,2363,210,2326,210C2289.2,210,2252,210,2215,210C2178.5,210,2142,210,2105,210C2067.7,210,2031,210,1994,210C1956.9,210,1920,210,1883,210C1846.2,210,1809,210,1772,210C1735.4,210,1698,210,1662,210C1624.6,210,1588,210,1551,210C1513.8,210,1477,210,1440,210C1403.1,210,1366,210,1329,210C1292.3,210,1255,210,1218,210C1181.5,210,1145,210,1108,210C1070.8,210,1034,210,997,210C960,210,923,210,886,210C849.2,210,812,210,775,210C738.5,210,702,210,665,210C627.7,210,591,210,554,210C516.9,210,480,210,443,210C406.2,210,369,210,332,210C295.4,210,258,210,222,210C184.6,210,148,210,111,210C73.8,210,37,210,18,210L0,210Z"/><defs><linearGradient id="sw-gradient-1" x1="0" x2="0" y1="1" y2="0"><stop stop-color="rgba(255, 255, 255, 1)" offset="0%"/><stop stop-color="rgba(255, 255, 255, 1)" offset="100%"/></linearGradient></defs><path style="transform:translate(0, 50px); opacity:0.9" fill="url(#sw-gradient-1)" d="M0,84L18.5,87.5C36.9,91,74,98,111,112C147.7,126,185,147,222,136.5C258.5,126,295,84,332,84C369.2,84,406,126,443,129.5C480,133,517,98,554,80.5C590.8,63,628,63,665,77C701.5,91,738,119,775,112C812.3,105,849,63,886,49C923.1,35,960,49,997,66.5C1033.8,84,1071,105,1108,115.5C1144.6,126,1182,126,1218,136.5C1255.4,147,1292,168,1329,150.5C1366.2,133,1403,77,1440,45.5C1476.9,14,1514,7,1551,10.5C1587.7,14,1625,28,1662,42C1698.5,56,1735,70,1772,94.5C1809.2,119,1846,154,1883,150.5C1920,147,1957,105,1994,98C2030.8,91,2068,119,2105,108.5C2141.5,98,2178,49,2215,24.5C2252.3,0,2289,0,2326,21C2363.1,42,2400,84,2437,94.5C2473.8,105,2511,84,2548,63C2584.6,42,2622,21,2640,10.5L2658.5,0L2658.5,210L2640,210C2621.5,210,2585,210,2548,210C2510.8,210,2474,210,2437,210C2400,210,2363,210,2326,210C2289.2,210,2252,210,2215,210C2178.5,210,2142,210,2105,210C2067.7,210,2031,210,1994,210C1956.9,210,1920,210,1883,210C1846.2,210,1809,210,1772,210C1735.4,210,1698,210,1662,210C1624.6,210,1588,210,1551,210C1513.8,210,1477,210,1440,210C1403.1,210,1366,210,1329,210C1292.3,210,1255,210,1218,210C1181.5,210,1145,210,1108,210C1070.8,210,1034,210,997,210C960,210,923,210,886,210C849.2,210,812,210,775,210C738.5,210,702,210,665,210C627.7,210,591,210,554,210C516.9,210,480,210,443,210C406.2,210,369,210,332,210C295.4,210,258,210,222,210C184.6,210,148,210,111,210C73.8,210,37,210,18,210L0,210Z"/> 

</svg>